<svg xmlns="http://www.w3.org/2000/svg" viewBox="0 0 800 450" fill="none">
  <rect width="800" height="450" rx="16" fill="oklch(0.2 0.02 255)"/>
  <!-- Title area -->
  <rect x="60" y="40" width="680" height="50" rx="8" fill="oklch(0.28 0.04 255 / 0.3)"/>
  <text x="400" y="62" text-anchor="middle" font-family="system-ui" font-size="13" font-weight="600" fill="oklch(0.75 0.06 255)" opacity="0.6">BreezeJS Client</text>
  <text x="400" y="78" text-anchor="middle" font-family="system-ui" font-size="10" fill="oklch(0.65 0.05 255)" opacity="0.35">JavaScript · Entity Management · Change Tracking</text>

  <!-- Down arrow -->
  <polygon points="400,95 393,105 407,105" fill="oklch(0.55 0.15 255 / 0.3)"/>

  <!-- Middle layer - breeze.server.php -->
  <rect x="140" y="112" width="520" height="120" rx="10" fill="oklch(0.3 0.04 255 / 0.25)" stroke="oklch(0.55 0.15 255 / 0.25)" stroke-width="1.5"/>
  <text x="400" y="138" text-anchor="middle" font-family="system-ui" font-size="14" font-weight="700" fill="oklch(0.6 0.15 255)">breeze.server.php</text>

  <!-- Sub-boxes -->
  <rect x="160" y="150" width="110" height="30" rx="5" fill="oklch(0.55 0.15 255 / 0.12)"/>
  <text x="215" y="169" text-anchor="middle" font-family="system-ui" font-size="9" fill="oklch(0.7 0.06 255)" opacity="0.8">Metadata Builder</text>

  <rect x="280" y="150" width="110" height="30" rx="5" fill="oklch(0.5 0.12 190 / 0.12)"/>
  <text x="335" y="169" text-anchor="middle" font-family="system-ui" font-size="9" fill="oklch(0.65 0.08 190)" opacity="0.8">Query Service</text>

  <rect x="400" y="150" width="110" height="30" rx="5" fill="oklch(0.55 0.1 60 / 0.12)"/>
  <text x="455" y="169" text-anchor="middle" font-family="system-ui" font-size="9" fill="oklch(0.75 0.08 60)" opacity="0.8">Save Service</text>

  <rect x="520" y="150" width="120" height="30" rx="5" fill="oklch(0.45 0.1 280 / 0.12)"/>
  <text x="580" y="169" text-anchor="middle" font-family="system-ui" font-size="9" fill="oklch(0.65 0.08 280)" opacity="0.8">Validation</text>

  <rect x="280" y="190" width="250" height="30" rx="5" fill="oklch(0.5 0.05 255 / 0.08)"/>
  <text x="405" y="209" text-anchor="middle" font-family="system-ui" font-size="9" fill="oklch(0.65 0.05 255)" opacity="0.6">Serialisation · JMS Serializer</text>

  <!-- Arrow down -->
  <polygon points="400,237 393,247 407,247" fill="oklch(0.55 0.15 255 / 0.3)"/>

  <!-- Backend boxes -->
  <rect x="140" y="255" width="170" height="65" rx="8" fill="oklch(0.28 0.04 255 / 0.3)"/>
  <rect x="150" y="263" width="150" height="20" rx="4" fill="oklch(0.55 0.15 255 / 0.1)"/>
  <text x="225" y="278" text-anchor="middle" font-family="system-ui" font-size="10" font-weight="600" fill="oklch(0.7 0.06 255)" opacity="0.7">Doctrine ORM</text>
  <text x="225" y="298" text-anchor="middle" font-family="system-ui" font-size="8" fill="oklch(0.65 0.05 255)" opacity="0.4">Mappings · Query Builder · UoW</text>

  <rect x="330" y="255" width="170" height="65" rx="8" fill="oklch(0.28 0.04 255 / 0.3)"/>
  <rect x="340" y="263" width="150" height="20" rx="4" fill="oklch(0.5 0.12 190 / 0.1)"/>
  <text x="415" y="278" text-anchor="middle" font-family="system-ui" font-size="10" font-weight="600" fill="oklch(0.65 0.08 190)" opacity="0.7">Symfony Validator</text>
  <text x="415" y="298" text-anchor="middle" font-family="system-ui" font-size="8" fill="oklch(0.65 0.05 255)" opacity="0.4">Constraints · Validation</text>

  <rect x="520" y="255" width="170" height="65" rx="8" fill="oklch(0.28 0.04 255 / 0.3)"/>
  <rect x="530" y="263" width="150" height="20" rx="4" fill="oklch(0.45 0.1 280 / 0.1)"/>
  <text x="605" y="278" text-anchor="middle" font-family="system-ui" font-size="10" font-weight="600" fill="oklch(0.65 0.08 280)" opacity="0.7">JMS Serializer</text>
  <text x="605" y="298" text-anchor="middle" font-family="system-ui" font-size="8" fill="oklch(0.65 0.05 255)" opacity="0.4">Serialisation · Exclusion</text>

  <!-- Database -->
  <polygon points="400,325 393,335 407,335" fill="oklch(0.55 0.15 255 / 0.3)"/>

  <rect x="300" y="342" width="200" height="50" rx="8" fill="oklch(0.28 0.04 255 / 0.3)"/>
  <rect x="310" y="350" width="180" height="15" rx="4" fill="oklch(0.55 0.15 255 / 0.08)"/>
  <text x="400" y="362" text-anchor="middle" font-family="system-ui" font-size="11" font-weight="600" fill="oklch(0.7 0.06 255)" opacity="0.6">(Database)</text>
  <text x="400" y="382" text-anchor="middle" font-family="system-ui" font-size="8" fill="oklch(0.65 0.05 255)" opacity="0.3">MySQL · PostgreSQL · SQLite</text>

  <!-- Bottom info - framework support -->
  <rect x="180" y="410" width="440" height="25" rx="12" fill="oklch(0.5 0.12 190 / 0.08)" stroke="oklch(0.5 0.12 190 / 0.15)" stroke-width="1"/>
  <text x="400" y="427" text-anchor="middle" font-family="system-ui" font-size="9" fill="oklch(0.65 0.05 255)" opacity="0.5">Standalone PHP · Symfony · Laravel</text>
</svg>
