<svg xmlns="http://www.w3.org/2000/svg" viewBox="0 0 800 450" fill="none">
  <rect width="800" height="450" rx="16" fill="oklch(0.2 0.02 255)"/>
  <!-- Left: individual items -->
  <rect x="60" y="80" width="180" height="60" rx="8" fill="oklch(0.28 0.04 255 / 0.3)"/>
  <rect x="75" y="93" width="150" height="8" rx="4" fill="oklch(0.55 0.15 255 / 0.12)"/>
  <rect x="75" y="108" width="120" height="8" rx="4" fill="oklch(0.55 0.15 255 / 0.08)"/>
  <rect x="75" y="123" width="135" height="8" rx="4" fill="oklch(0.55 0.15 255 / 0.06)"/>

  <rect x="60" y="160" width="180" height="60" rx="8" fill="oklch(0.28 0.04 255 / 0.3)"/>
  <rect x="75" y="173" width="150" height="8" rx="4" fill="oklch(0.55 0.15 255 / 0.12)"/>
  <rect x="75" y="188" width="120" height="8" rx="4" fill="oklch(0.55 0.15 255 / 0.08)"/>

  <rect x="60" y="240" width="180" height="60" rx="8" fill="oklch(0.28 0.04 255 / 0.3)"/>
  <rect x="75" y="253" width="150" height="8" rx="4" fill="oklch(0.55 0.15 255 / 0.12)"/>
  <rect x="75" y="268" width="135" height="8" rx="4" fill="oklch(0.55 0.15 255 / 0.08)"/>
  <rect x="75" y="283" width="110" height="8" rx="4" fill="oklch(0.55 0.15 255 / 0.06)"/>

  <!-- Arrow -->
  <polygon points="260,190 275,185 275,195" fill="oklch(0.55 0.15 255 / 0.3)"/>
  <line x1="248" y1="190" x2="260" y2="190" stroke="oklch(0.55 0.15 255 / 0.2)" stroke-width="2"/>

  <!-- Right: bundle -->
  <rect x="290" y="120" width="220" height="140" rx="12" fill="oklch(0.28 0.04 255 / 0.4)" stroke="oklch(0.55 0.15 255 / 0.3)" stroke-width="2"/>
  <rect x="310" y="135" width="180" height="25" rx="6" fill="oklch(0.55 0.15 255 / 0.2)"/>
  <text x="400" y="152" text-anchor="middle" font-family="system-ui" font-size="12" font-weight="700" fill="oklch(0.75 0.08 255)">BUNDLE SKU</text>

  <rect x="310" y="170" width="180" height="8" rx="4" fill="oklch(0.55 0.15 255 / 0.15)"/>
  <rect x="310" y="185" width="160" height="8" rx="4" fill="oklch(0.55 0.15 255 / 0.12)"/>
  <rect x="310" y="200" width="175" height="8" rx="4" fill="oklch(0.55 0.15 255 / 0.1)"/>
  <rect x="310" y="215" width="140" height="8" rx="4" fill="oklch(0.5 0.12 190 / 0.15)"/>
  <rect x="310" y="230" width="165" height="8" rx="4" fill="oklch(0.5 0.12 190 / 0.12)"/>

  <!-- Add to cart -->
  <rect x="320" y="248" width="160" height="10" rx="5" fill="oklch(0.5 0.12 190 / 0.3)"/>

  <!-- Bottom: platform labels -->
  <rect x="530" y="100" width="210" height="90" rx="8" fill="oklch(0.28 0.04 255 / 0.25)"/>
  <rect x="540" y="112" width="190" height="20" rx="5" fill="oklch(0.55 0.15 255 / 0.1)"/>
  <text x="635" y="127" text-anchor="middle" font-family="system-ui" font-size="10" font-weight="600" fill="oklch(0.7 0.06 255)" opacity="0.7">Oracle Storefront Framework</text>
  <rect x="540" y="140" width="190" height="20" rx="5" fill="oklch(0.55 0.15 255 / 0.08)"/>
  <text x="635" y="155" text-anchor="middle" font-family="system-ui" font-size="10" font-weight="600" fill="oklch(0.7 0.06 255)" opacity="0.5">Oracle Commerce Cloud</text>
  <rect x="540" y="168" width="190" height="20" rx="5" fill="oklch(0.55 0.15 255 / 0.06)"/>
  <text x="635" y="183" text-anchor="middle" font-family="system-ui" font-size="10" font-weight="600" fill="oklch(0.7 0.06 255)" opacity="0.35">React · Enterprise Commerce</text>

  <!-- Arrow from bundle to platform -->
  <line x1="510" y1="190" x2="530" y2="170" stroke="oklch(0.55 0.15 255 / 0.15)" stroke-width="1.5" stroke-dasharray="4 3"/>

  <!-- Bottom info -->
  <rect x="200" y="340" width="400" height="50" rx="25" fill="oklch(0.5 0.12 190 / 0.06)" stroke="oklch(0.5 0.12 190 / 0.15)" stroke-width="1"/>
  <text x="400" y="358" text-anchor="middle" font-family="system-ui" font-size="11" font-weight="600" fill="oklch(0.65 0.08 190)" opacity="0.7">Sprint Champion Award</text>
  <text x="400" y="376" text-anchor="middle" font-family="system-ui" font-size="9" fill="oklch(0.65 0.05 255)" opacity="0.35">Fortune 500 · B2B Commerce · Frontend Delivery</text>
</svg>
