<svg xmlns="http://www.w3.org/2000/svg" viewBox="0 0 800 450" fill="none">
  <rect width="800" height="450" rx="16" fill="oklch(0.2 0.02 255)"/>
  <rect x="60" y="60" width="320" height="160" rx="12" fill="oklch(0.28 0.04 255 / 0.35)"/>
  <rect x="80" y="80" width="60" height="60" rx="8" fill="oklch(0.55 0.15 255 / 0.2)"/>
  <text x="110" y="115" text-anchor="middle" font-family="system-ui" font-size="20" font-weight="700" fill="oklch(0.6 0.15 255)">V</text>
  <rect x="155" y="80" width="205" height="25" rx="6" fill="oklch(0.55 0.15 255 / 0.15)"/>
  <text x="257" y="97" text-anchor="middle" font-family="system-ui" font-size="13" font-weight="600" fill="oklch(0.8 0.05 255)">Vue File Agent</text>
  <rect x="155" y="112" width="180" height="6" rx="3" fill="oklch(0.55 0.15 255 / 0.1)"/>
  <rect x="155" y="125" width="165" height="6" rx="3" fill="oklch(0.55 0.15 255 / 0.1)"/>
  <rect x="155" y="138" width="190" height="6" rx="3" fill="oklch(0.55 0.15 255 / 0.08)"/>
  <rect x="80" y="155" width="280" height="3" rx="1.5" fill="oklch(0.55 0.15 255 / 0.08)"/>
  <circle cx="95" cy="175" r="4" fill="oklch(0.5 0.12 190 / 0.5)"/>
  <text x="108" y="179" font-family="system-ui" font-size="11" fill="oklch(0.65 0.05 255)" opacity="0.6">drag-and-drop</text>
  <circle cx="220" cy="175" r="4" fill="oklch(0.5 0.12 190 / 0.5)"/>
  <text x="233" y="179" font-family="system-ui" font-size="11" fill="oklch(0.65 0.05 255)" opacity="0.6">multi-file</text>
  <circle cx="310" cy="175" r="4" fill="oklch(0.5 0.12 190 / 0.5)"/>
  <text x="323" y="179" font-family="system-ui" font-size="11" fill="oklch(0.65 0.05 255)" opacity="0.6">previews</text>
  <rect x="420" y="60" width="320" height="160" rx="12" fill="oklch(0.28 0.04 255 / 0.35)"/>
  <rect x="440" y="80" width="60" height="60" rx="8" fill="oklch(0.45 0.1 280 / 0.2)"/>
  <text x="470" y="115" text-anchor="middle" font-family="system-ui" font-size="20" font-weight="700" fill="oklch(0.5 0.12 280)">{ }</text>
  <rect x="515" y="80" width="205" height="25" rx="6" fill="oklch(0.45 0.1 280 / 0.15)"/>
  <text x="617" y="97" text-anchor="middle" font-family="system-ui" font-size="13" font-weight="600" fill="oklch(0.75 0.06 280)">Rockplate</text>
  <rect x="515" y="112" width="180" height="6" rx="3" fill="oklch(0.45 0.1 280 / 0.1)"/>
  <rect x="515" y="125" width="165" height="6" rx="3" fill="oklch(0.45 0.1 280 / 0.1)"/>
  <rect x="515" y="138" width="190" height="6" rx="3" fill="oklch(0.45 0.1 280 / 0.08)"/>
  <rect x="440" y="155" width="280" height="3" rx="1.5" fill="oklch(0.45 0.1 280 / 0.08)"/>
  <circle cx="455" cy="175" r="4" fill="oklch(0.55 0.1 60 / 0.5)"/>
  <text x="468" y="179" font-family="system-ui" font-size="11" fill="oklch(0.65 0.05 255)" opacity="0.6">template engine</text>
  <circle cx="580" cy="175" r="4" fill="oklch(0.55 0.1 60 / 0.5)"/>
  <text x="593" y="179" font-family="system-ui" font-size="11" fill="oklch(0.65 0.05 255)" opacity="0.6">VS Code ext</text>
  <circle cx="690" cy="175" r="4" fill="oklch(0.55 0.1 60 / 0.5)"/>
  <text x="703" y="179" font-family="system-ui" font-size="11" fill="oklch(0.65 0.05 255)" opacity="0.6">open source</text>
  <rect x="160" y="250" width="480" height="3" rx="1.5" fill="oklch(0.55 0.15 255 / 0.15)"/>
  <rect x="200" y="280" width="200" height="100" rx="10" fill="oklch(0.28 0.04 255 / 0.25)"/>
  <rect x="215" y="295" width="170" height="20" rx="5" fill="oklch(0.55 0.15 255 / 0.12)"/>
  <text x="300" y="310" text-anchor="middle" font-family="system-ui" font-size="11" font-weight="600" fill="oklch(0.7 0.05 255)">DOCUMENTATION</text>
  <rect x="215" y="325" width="80" height="6" rx="3" fill="oklch(0.55 0.15 255 / 0.08)"/>
  <rect x="215" y="338" width="130" height="6" rx="3" fill="oklch(0.55 0.15 255 / 0.08)"/>
  <rect x="215" y="351" width="100" height="6" rx="3" fill="oklch(0.55 0.15 255 / 0.06)"/>
  <rect x="215" y="364" width="150" height="6" rx="3" fill="oklch(0.55 0.15 255 / 0.06)"/>
  <rect x="420" y="280" width="200" height="100" rx="10" fill="oklch(0.28 0.04 255 / 0.25)"/>
  <rect x="435" y="295" width="170" height="20" rx="5" fill="oklch(0.5 0.12 190 / 0.12)"/>
  <text x="520" y="310" text-anchor="middle" font-family="system-ui" font-size="11" font-weight="600" fill="oklch(0.7 0.06 190)">MAINTENANCE</text>
  <rect x="435" y="325" width="80" height="6" rx="3" fill="oklch(0.5 0.12 190 / 0.08)"/>
  <rect x="435" y="338" width="130" height="6" rx="3" fill="oklch(0.5 0.12 190 / 0.08)"/>
  <rect x="435" y="351" width="100" height="6" rx="3" fill="oklch(0.5 0.12 190 / 0.06)"/>
  <rect x="435" y="364" width="150" height="6" rx="3" fill="oklch(0.5 0.12 190 / 0.06)"/>
  <text x="400" y="415" text-anchor="middle" font-family="system-ui" font-size="12" fill="oklch(0.65 0.05 255)" opacity="0.45">build · document · maintain · repeat</text>
</svg>
