<svg xmlns="http://www.w3.org/2000/svg" viewBox="0 0 800 450" fill="none">
  <rect width="800" height="450" rx="16" fill="oklch(0.2 0.02 255)"/>
  <rect x="60" y="60" width="680" height="60" rx="8" fill="oklch(0.3 0.04 255 / 0.15)"/>
  <rect x="80" y="75" width="120" height="30" rx="6" fill="oklch(0.55 0.15 255 / 0.25)"/>
  <rect x="220" y="75" width="100" height="30" rx="6" fill="oklch(0.55 0.15 255 / 0.15)"/>
  <rect x="340" y="75" width="80" height="30" rx="6" fill="oklch(0.55 0.15 255 / 0.15)"/>
  <rect x="60" y="140" width="200" height="180" rx="12" fill="oklch(0.28 0.04 255 / 0.4)"/>
  <text x="160" y="175" text-anchor="middle" font-family="system-ui" font-size="16" font-weight="700" fill="oklch(0.6 0.15 255)">DeepSeek</text>
  <text x="160" y="195" text-anchor="middle" font-family="system-ui" font-size="12" fill="oklch(0.7 0.05 255)" opacity="0.6">Coder 6.7B</text>
  <rect x="80" y="215" width="160" height="8" rx="4" fill="oklch(0.5 0.15 255 / 0.4)"/>
  <rect x="80" y="233" width="140" height="8" rx="4" fill="oklch(0.55 0.15 255 / 0.3)"/>
  <rect x="80" y="251" width="155" height="8" rx="4" fill="oklch(0.55 0.15 255 / 0.25)"/>
  <rect x="80" y="269" width="130" height="8" rx="4" fill="oklch(0.55 0.15 255 / 0.2)"/>
  <rect x="80" y="287" width="150" height="8" rx="4" fill="oklch(0.55 0.15 255 / 0.15)"/>
  <rect x="300" y="140" width="200" height="180" rx="12" fill="oklch(0.28 0.04 255 / 0.4)"/>
  <text x="400" y="175" text-anchor="middle" font-family="system-ui" font-size="16" font-weight="700" fill="oklch(0.5 0.12 190)">Qwen</text>
  <text x="400" y="195" text-anchor="middle" font-family="system-ui" font-size="12" fill="oklch(0.7 0.05 255)" opacity="0.6">2.5-Coder 7B</text>
  <rect x="320" y="215" width="160" height="8" rx="4" fill="oklch(0.45 0.12 190 / 0.4)"/>
  <rect x="320" y="233" width="155" height="8" rx="4" fill="oklch(0.5 0.12 190 / 0.3)"/>
  <rect x="320" y="251" width="140" height="8" rx="4" fill="oklch(0.5 0.12 190 / 0.25)"/>
  <rect x="320" y="269" width="160" height="8" rx="4" fill="oklch(0.5 0.12 190 / 0.2)"/>
  <rect x="320" y="287" width="135" height="8" rx="4" fill="oklch(0.5 0.12 190 / 0.15)"/>
  <rect x="540" y="140" width="200" height="180" rx="12" fill="oklch(0.28 0.04 255 / 0.4)"/>
  <text x="640" y="175" text-anchor="middle" font-family="system-ui" font-size="16" font-weight="700" fill="oklch(0.55 0.1 60)">Llama</text>
  <text x="640" y="195" text-anchor="middle" font-family="system-ui" font-size="12" fill="oklch(0.7 0.05 255)" opacity="0.6">3.x 8B</text>
  <rect x="560" y="215" width="160" height="8" rx="4" fill="oklch(0.5 0.1 60 / 0.4)"/>
  <rect x="560" y="233" width="130" height="8" rx="4" fill="oklch(0.55 0.1 60 / 0.3)"/>
  <rect x="560" y="251" width="150" height="8" rx="4" fill="oklch(0.55 0.1 60 / 0.25)"/>
  <rect x="560" y="269" width="120" height="8" rx="4" fill="oklch(0.55 0.1 60 / 0.2)"/>
  <rect x="560" y="287" width="140" height="8" rx="4" fill="oklch(0.55 0.1 60 / 0.15)"/>
  <rect x="250" y="340" width="300" height="3" rx="1.5" fill="oklch(0.55 0.15 255 / 0.2)"/>
  <rect x="350" y="340" width="100" height="3" rx="1.5" fill="oklch(0.55 0.15 255 / 0.4)"/>
  <text x="400" y="380" text-anchor="middle" font-family="system-ui" font-size="12" fill="oklch(0.7 0.05 255)" opacity="0.5">correctness · instruction fidelity · efficiency</text>
</svg>
