<svg xmlns="http://www.w3.org/2000/svg" viewBox="0 0 800 450" fill="none">
  <rect width="800" height="450" rx="16" fill="oklch(0.2 0.02 255)"/>
  <rect x="60" y="60" width="200" height="140" rx="12" fill="oklch(0.3 0.04 255 / 0.3)"/>
  <rect x="80" y="80" width="160" height="40" rx="6" fill="oklch(0.55 0.15 255 / 0.2)"/>
  <rect x="80" y="130" width="120" height="8" rx="4" fill="oklch(0.55 0.15 255 / 0.15)"/>
  <rect x="80" y="148" width="100" height="8" rx="4" fill="oklch(0.55 0.15 255 / 0.15)"/>
  <rect x="80" y="166" width="140" height="8" rx="4" fill="oklch(0.55 0.15 255 / 0.15)"/>
  <rect x="300" y="60" width="200" height="140" rx="12" fill="oklch(0.3 0.04 255 / 0.3)"/>
  <rect x="320" y="80" width="160" height="40" rx="6" fill="oklch(0.5 0.12 190 / 0.25)"/>
  <rect x="320" y="130" width="120" height="8" rx="4" fill="oklch(0.5 0.12 190 / 0.15)"/>
  <rect x="320" y="148" width="100" height="8" rx="4" fill="oklch(0.5 0.12 190 / 0.15)"/>
  <rect x="320" y="166" width="140" height="8" rx="4" fill="oklch(0.5 0.12 190 / 0.15)"/>
  <rect x="540" y="60" width="200" height="140" rx="12" fill="oklch(0.3 0.04 255 / 0.3)"/>
  <rect x="560" y="80" width="160" height="40" rx="6" fill="oklch(0.45 0.1 280 / 0.25)"/>
  <rect x="560" y="130" width="120" height="8" rx="4" fill="oklch(0.45 0.1 280 / 0.15)"/>
  <rect x="560" y="148" width="100" height="8" rx="4" fill="oklch(0.45 0.1 280 / 0.15)"/>
  <rect x="560" y="166" width="140" height="8" rx="4" fill="oklch(0.45 0.1 280 / 0.15)"/>
  <circle cx="400" cy="270" r="60" fill="oklch(0.55 0.15 255 / 0.1)" stroke="oklch(0.55 0.15 255 / 0.3)" stroke-width="2"/>
  <circle cx="400" cy="270" r="40" fill="oklch(0.55 0.15 255 / 0.15)" stroke="oklch(0.55 0.15 255 / 0.25)" stroke-width="1.5"/>
  <circle cx="400" cy="270" r="20" fill="oklch(0.55 0.15 255 / 0.25)"/>
  <path d="M400 230 V310 M370 270 H430" stroke="oklch(0.55 0.15 255 / 0.4)" stroke-width="2"/>
  <rect x="160" y="340" width="480" height="50" rx="25" fill="oklch(0.55 0.15 255 / 0.08)" stroke="oklch(0.55 0.15 255 / 0.2)" stroke-width="1"/>
  <circle cx="185" cy="365" r="8" fill="oklch(0.5 0.12 190 / 0.5)"/>
  <circle cx="215" cy="365" r="8" fill="oklch(0.5 0.12 190 / 0.5)"/>
  <circle cx="245" cy="365" r="8" fill="oklch(0.5 0.12 190 / 0.3)"/>
  <circle cx="275" cy="365" r="8" fill="oklch(0.45 0.1 280 / 0.4)"/>
  <circle cx="305" cy="365" r="8" fill="oklch(0.45 0.1 280 / 0.4)"/>
  <circle cx="335" cy="365" r="8" fill="oklch(0.45 0.1 280 / 0.4)"/>
  <circle cx="365" cy="365" r="8" fill="oklch(0.45 0.1 280 / 0.2)"/>
  <text x="400" y="410" text-anchor="middle" font-family="system-ui" font-size="14" fill="oklch(0.8 0.02 255)" opacity="0.6">ollama · opencode · claude</text>
</svg>
