<svg xmlns="http://www.w3.org/2000/svg" viewBox="0 0 800 450" fill="none">
  <rect width="800" height="450" rx="16" fill="oklch(0.2 0.02 255)"/>
  <rect x="60" y="50" width="150" height="200" rx="12" fill="oklch(0.28 0.04 255 / 0.35)"/>
  <rect x="75" y="65" width="120" height="30" rx="6" fill="oklch(0.55 0.15 255 / 0.25)"/>
  <text x="135" y="85" text-anchor="middle" font-family="system-ui" font-size="13" font-weight="600" fill="oklch(0.8 0.05 255)">PLAN</text>
  <rect x="80" y="110" width="110" height="6" rx="3" fill="oklch(0.55 0.15 255 / 0.15)"/>
  <rect x="80" y="125" width="90" height="6" rx="3" fill="oklch(0.55 0.15 255 / 0.15)"/>
  <rect x="80" y="140" width="100" height="6" rx="3" fill="oklch(0.55 0.15 255 / 0.15)"/>
  <rect x="80" y="170" width="110" height="6" rx="3" fill="oklch(0.55 0.15 255 / 0.1)"/>
  <rect x="80" y="185" width="105" height="6" rx="3" fill="oklch(0.55 0.15 255 / 0.1)"/>
  <rect x="80" y="200" width="95" height="6" rx="3" fill="oklch(0.55 0.15 255 / 0.1)"/>
  <rect x="80" y="215" width="110" height="6" rx="3" fill="oklch(0.55 0.15 255 / 0.08)"/>
  <rect x="80" y="230" width="85" height="6" rx="3" fill="oklch(0.55 0.15 255 / 0.08)"/>
  <rect x="237" y="140" width="30" height="20" rx="4" fill="oklch(0.55 0.15 255 / 0.35)">
    <animate attributeName="opacity" values="0.3;1;0.3" dur="2s" repeatCount="indefinite"/>
  </rect>
  <rect x="295" y="50" width="150" height="200" rx="12" fill="oklch(0.28 0.04 255 / 0.35)"/>
  <rect x="310" y="65" width="120" height="30" rx="6" fill="oklch(0.5 0.12 190 / 0.25)"/>
  <text x="370" y="85" text-anchor="middle" font-family="system-ui" font-size="13" font-weight="600" fill="oklch(0.75 0.08 190)">SCAFFOLD</text>
  <rect x="315" y="110" width="110" height="6" rx="3" fill="oklch(0.5 0.12 190 / 0.15)"/>
  <rect x="315" y="125" width="100" height="6" rx="3" fill="oklch(0.5 0.12 190 / 0.15)"/>
  <rect x="315" y="140" width="105" height="6" rx="3" fill="oklch(0.5 0.12 190 / 0.12)"/>
  <rect x="315" y="170" width="110" height="6" rx="3" fill="oklch(0.5 0.12 190 / 0.1)"/>
  <rect x="315" y="185" width="95" height="6" rx="3" fill="oklch(0.5 0.12 190 / 0.1)"/>
  <rect x="315" y="215" width="110" height="6" rx="3" fill="oklch(0.5 0.12 190 / 0.08)"/>
  <rect x="472" y="140" width="30" height="20" rx="4" fill="oklch(0.5 0.12 190 / 0.35)">
    <animate attributeName="opacity" values="0.3;1;0.3" dur="2.3s" repeatCount="indefinite"/>
  </rect>
  <rect x="530" y="50" width="150" height="200" rx="12" fill="oklch(0.28 0.04 255 / 0.35)"/>
  <rect x="545" y="65" width="120" height="30" rx="6" fill="oklch(0.55 0.1 60 / 0.25)"/>
  <text x="605" y="85" text-anchor="middle" font-family="system-ui" font-size="13" font-weight="600" fill="oklch(0.8 0.08 60)">IMPLEMENT</text>
  <rect x="550" y="110" width="110" height="6" rx="3" fill="oklch(0.55 0.1 60 / 0.15)"/>
  <rect x="550" y="125" width="95" height="6" rx="3" fill="oklch(0.55 0.1 60 / 0.15)"/>
  <rect x="550" y="140" width="105" height="6" rx="3" fill="oklch(0.55 0.1 60 / 0.12)"/>
  <rect x="550" y="155" width="100" height="6" rx="3" fill="oklch(0.55 0.1 60 / 0.12)"/>
  <rect x="550" y="185" width="110" height="6" rx="3" fill="oklch(0.55 0.1 60 / 0.1)"/>
  <rect x="550" y="200" width="95" height="6" rx="3" fill="oklch(0.55 0.1 60 / 0.1)"/>
  <rect x="550" y="215" width="105" height="6" rx="3" fill="oklch(0.55 0.1 60 / 0.08)"/>
  <rect x="550" y="230" width="90" height="6" rx="3" fill="oklch(0.55 0.1 60 / 0.08)"/>
  <path d="M285 150 L295 150 L295 145 L305 155 L295 165 L295 160 L285 160" fill="oklch(0.55 0.15 255 / 0.4)"/>
  <path d="M520 150 L530 150 L530 145 L540 155 L530 165 L530 160 L520 160" fill="oklch(0.5 0.12 190 / 0.4)"/>
  <rect x="60" y="280" width="680" height="120" rx="12" fill="oklch(0.28 0.04 255 / 0.25)"/>
  <rect x="75" y="295" width="120" height="30" rx="6" fill="oklch(0.55 0.1 60 / 0.2)"/>
  <text x="135" y="315" text-anchor="middle" font-family="system-ui" font-size="13" font-weight="600" fill="oklch(0.8 0.08 60)">AUDIT</text>
  <rect x="80" y="340" width="120" height="6" rx="3" fill="oklch(0.55 0.1 60 / 0.12)"/>
  <rect x="80" y="355" width="110" height="6" rx="3" fill="oklch(0.55 0.1 60 / 0.12)"/>
  <rect x="80" y="370" width="125" height="6" rx="3" fill="oklch(0.55 0.1 60 / 0.1)"/>
  <rect x="230" y="335" width="3" height="50" rx="1.5" fill="oklch(0.55 0.1 60 / 0.2)"/>
  <rect x="250" y="300" width="470" height="80" rx="8" fill="oklch(0.3 0.04 255 / 0.2)"/>
  <text x="490" y="328" text-anchor="middle" font-family="system-ui" font-size="13" fill="oklch(0.65 0.05 255)" opacity="0.7">pass through a different model</text>
  <rect x="260" y="340" width="120" height="6" rx="3" fill="oklch(0.55 0.15 255 / 0.12)"/>
  <rect x="260" y="355" width="140" height="6" rx="3" fill="oklch(0.55 0.15 255 / 0.12)"/>
  <rect x="420" y="340" width="100" height="6" rx="3" fill="oklch(0.5 0.12 190 / 0.12)"/>
  <rect x="420" y="355" width="130" height="6" rx="3" fill="oklch(0.5 0.12 190 / 0.12)"/>
  <rect x="570" y="340" width="110" height="6" rx="3" fill="oklch(0.55 0.1 60 / 0.12)"/>
  <rect x="570" y="355" width="120" height="6" rx="3" fill="oklch(0.55 0.1 60 / 0.12)"/>
</svg>
